#!OML:ASF F:\VICON\USERDATA\INSTALL\rory3\rory3.ASF
:FULLY-SPECIFIED
:DEGREES
55
root 0.8546477224120006 18.047452185790114 21.162346809746875 6.794447472229338 -3.495817864741276 -5.648283669019111
lfemur -36.73484759824638 5.719535517112997 -13.142876176550956
ltibia 91.49762057128567
lfoot -1.9234074533196717 -4.302729388011159
ltoes -15.143146861110756
rfemur -3.7546564702951315 6.729552238049937 35.12406122606889
rtibia 43.856485111920115
rfoot -9.72804322847017 -9.805191128976293
rtoes -11.61825600345306
lowerback 11.90008881133751 1.0649741132076702 5.2653657181850395
upperback -1.7525968659914963 2.3279442102896954 1.856927539224825
thorax -7.68538153072083 0.9161562497758096 -0.9900512350264755
lowerneck -18.7503609467175 -4.007366732914632 -3.1724056225413975
upperneck 9.534886158700813 -5.170205872322871 5.198940582601795
head 6.5149749490551345 -2.172550413629862 1.5899673374431444
lclavicle -1.5374925935009463e-15 -3.2911788383708198e-15
lhumerus -57.75892457645067 -7.413580705723498 92.19394952752918
lradius 110.12049759124562
lwrist 31.854176020598626
lhand -23.32874686753183 4.158864743514615
lfingers 7.12502
lthumb 2.8003448045893737 34.3675309802121
rclavicle -1.5374583025781018e-15 -3.2919977030161117e-15
rhumerus -40.533184349835665 17.903449480038496 -96.64602643909295
rradius 121.38779473925682
rwrist -23.491700030584195
rhand -18.82782495906651 39.890419054996904
rfingers 7.12502
rthumb 7.240770451159703 9.97579338499633
56
root 0.8806104711691358 18.281894210308145 22.206652997922895 6.574539545966717 -2.9811141568921884 -4.814945784138901
lfemur -37.185316221987044 4.034320293511816 -14.888851530426493
ltibia 83.1795075277823
lfoot -1.844691218389939 -5.541487005658039
ltoes -19.684593317275297
rfemur -1.1688071631996824 6.370168390177762 34.063332568786095
rtibia 39.37373781594184
rfoot -1.6849971192726594 -7.184352354160955
rtoes -8.427716089482212
lowerback 11.295077470099942 1.2683852726197462 4.675283657588002
upperback -1.9157292151370142 2.426306223562741 1.2694318938103861
thorax -7.516304926559683 0.9548795436384696 -1.2784963632497317
lowerneck -18.332804667201394 -4.036008218616109 -3.176331719481408
upperneck 9.818125308986618 -5.207364572262403 5.281669573697695
head 6.496012567744313 -2.1962012994482567 1.6537674025866365
lclavicle -1.5388772247471148e-15 -3.2921983887244163e-15
lhumerus -58.86542854144817 -6.396434419121613 91.54826515306267
lradius 110.73870466017293
lwrist 32.13692576228559
lhand -22.533863166194873 3.109302277995096
lfingers 7.12502
lthumb 4.034552321890114 33.382359105047996
rclavicle -1.5366431810421504e-15 -3.2916010258708692e-15
rhumerus -40.111482788586265 18.885306825810655 -96.29556378584779
rradius 123.36283687647573
rwrist -22.881729365147176
rhand -18.83044604502019 39.47186193617002
rfingers 7.12502
rthumb 7.33017608793905 9.061172436435257
57
root 0.8884593431686988 18.42552364098891 23.424973115095728 5.979567060881161 -2.3602776003079002 -4.0349110500694625
lfemur -36.42701358037185 2.1439684106813477 -16.41374950332968
ltibia 74.61918623484249
lfoot -1.4572771977911643 -7.234502592839425
ltoes -21.48739249478176
rfemur 1.7050310642530864 6.14628936698609 33.104878310525805
rtibia 34.640829179884875
rfoot 7.575836306062101 -5.3410709828813925
rtoes -3.094240148570691
lowerback 11.182502040040019 1.4137115626807366 4.1374389429208875
upperback -2.012420636535061 2.5147427248807874 0.750304587945808
thorax -7.6028929559207 1.0087175258879144 -1.5341061341466808
lowerneck -17.832369294309817 -3.967296227195482 -3.150941893194959
upperneck 10.374314987038767 -5.1162507374436315 5.192903693777187
head 6.570017856524113 -2.1826836248312667 1.650538913161625
lclavicle -1.5372625839081374e-15 -3.29105133501968e-15
lhumerus -59.619847559295806 -5.336297407207397 90.73304480138061
lradius 111.19154401575004
lwrist 32.590197630774256
lhand -23.68068095247776 3.4272449895103976
lfingers 7.12502
lthumb 2.642865039008549 33.17305777825755
rclavicle -1.5379924000866445e-15 -3.2923587363170427e-15
rhumerus -40.179897307152174 19.435546321472454 -96.04648516538697
rradius 124.80109239308094
rwrist -21.87197718263743
rhand -18.626797742136883 38.846322171819025
rfingers 7.12502
rthumb 8.06965093329934 8.640851900494173
58
root 0.9001390213351661 18.577949364360478 24.702844221036287 5.402761146427881 -1.536428645215639 -3.399477487873892
lfemur -34.86193811993934 0.06254620819401902 -17.533588064133138
ltibia 65.28028006615354
lfoot -0.39310511429219464 -8.969311754063888
ltoes -23.51412911725631
rfemur 4.210419309378198 5.896090781779286 32.549944735120704
rtibia 30.03936321114711
rfoot 16.36743369735108 -4.423752881175964
rtoes 1.6507603309677954
lowerback 10.773383826461297 1.5091273734310984 3.8482912201908355
upperback -2.011757142404204 2.609185239793388 0.34576183187581533
thorax -7.427052434453401 1.0960757513294779 -1.7764625231397813
lowerneck -17.520389219126763 -3.9989443270433984 -3.1658042394510053
upperneck 11.382676676664007 -5.1197352157058145 5.034632605245847
head 6.863106688916504 -2.215970643620852 1.592026802518039
lclavicle -1.5369521331172177e-15 -3.290749797075298e-15
lhumerus -60.5230404388659 -4.549048781038467 90.07672229146162
lradius 111.63650465439164
lwrist 33.39350520221912
lhand -24.861438394348312 4.499455503578258
lfingers 7.12502
lthumb 1.1591155878931638 34.20975586730316
rclavicle -1.538292311507841e-15 -3.2929127297376773e-15
rhumerus -40.56246779909414 19.64031200877693 -95.88769675558447
rradius 125.83198425955786
rwrist -21.647492785649884
rhand -17.703107824150397 38.4923263736196
rfingers 7.12502
rthumb 8.42005439779202 8.262444092808373
59
root 0.902362700947325 18.684608388785566 25.762636422101956 5.171107295032682 -1.3357808536803557 -2.9364136891861183
lfemur -33.50463567831504 -1.098143253326371 -18.311825435507032
ltibia 55.75041271215154
lfoot 1.615462326332295 -10.278715575303828
ltoes -23.91231034021913
rfemur 5.645826133546743 6.617938448725017 32.19265062857455
rtibia 26.784101139894908
rfoot 22.4374268107516 -4.2120820906197824
rtoes 10.166972113142691
lowerback 10.401607435039711 1.7383429066186715 3.544281964478086
upperback -2.1437398476289244 2.8202105381891593 0.12014819455876835
thorax -7.480680221319106 1.2023706106215841 -1.9715000137762329
lowerneck -17.07913876839467 -4.023253263203594 -3.206016576285706
upperneck 11.980761731167854 -5.1363267966501445 4.967727673004598
head 7.021318058011246 -2.262690523552875 1.560209738218643
lclavicle -1.5369742492894075e-15 -3.2907639648161176e-15
lhumerus -60.97300791799234 -3.956391072153783 89.44534892776124
lradius 111.8538031759552
lwrist 34.19736500079502
lhand -25.359508998882642 4.008049321664677
lfingers 7.12502
lthumb 0.704965526028852 33.970023800874394
rclavicle -1.537881284071078e-15 -3.2928474358977406e-15
rhumerus -40.90384123013349 19.67090448176329 -95.86046166365638
rradius 126.61776286424465
rwrist -21.686467419229654
rhand -16.646485265851975 39.08418320944706
rfingers 7.12502
rthumb 8.31838417657359 8.018309896128715
60
root 0.9146666324194064 18.734933056117214 26.993277717477365 5.354356137668521 -1.5791225985017996 -3.301516445062587
lfemur -31.724548824210487 -1.4677884838065358 -17.972187240398206
ltibia 46.160258105491536
lfoot 4.298575732862147 -11.955513586304587
ltoes -23.126576608750064
rfemur 5.989803179278487 7.79031150766968 32.7908132894243
rtibia 26.279554239075466
rfoot 25.456148296711444 -4.192267033134039
rtoes 16.71377949414854
lowerback 10.069949308571115 2.001763878559906 4.040993640907009
upperback -2.2576891960196384 3.1842612937133477 0.1565847951366457
thorax -7.449258003529186 1.3688533766964206 -2.386095903441195
lowerneck -16.882172286232617 -4.027210781386194 -3.2131082964427238
upperneck 12.781646134730035 -5.0942024529958125 4.672968724754899
head 7.436059778477603 -2.260908941185101 1.3950014166613753
lclavicle -1.5387094980915228e-15 -3.292037125541774e-15
lhumerus -61.1716006348539 -3.7036598645192815 88.927767856198
lradius 112.07566389840147
lwrist 33.784767802779655
lhand -25.56445615789746 3.282538700745134
lfingers 7.12502
lthumb 0.8117851650246385 32.98091958700099
rclavicle -1.5383072108765935e-15 -3.29294976196052e-15
rhumerus -41.47224747320338 19.241519292625554 -96.00255983713423
rradius 127.39632766230963
rwrist -21.705796012357276
rhand -17.194368177905496 38.09877397015635
rfingers 7.12502
rthumb 8.146742646120785 8.96556894368575
61
root 0.894987501219006 18.713002282814845 27.790602476412996 5.163206156330274 -2.3920828822576263 -4.061229796972578
lfemur -29.7391032807948 -0.9500465692268998 -17.100944897413502
ltibia 37.478570740908864
lfoot 6.653240576041753 -13.321370034345112
ltoes -20.03687557280784
rfemur 5.456580660591078 9.021371032786817 33.76015322395871
rtibia 28.402466900293255
rfoot 25.3108599228604 -4.8622066003713
rtoes 13.599697083626792
lowerback 10.283191815233053 2.3007933800407705 4.5277276903130055
upperback -2.1937571019727584 3.6414875448498254 0.4434980722909241
thorax -7.521320604745935 1.588350602483888 -2.5849005054042484
lowerneck -17.002132291979855 -4.058053688854677 -3.2612561439303858
upperneck 13.243266740465469 -5.1147626170287666 4.511216911032079
head 7.823388684685687 -2.254977064251715 1.292545546242398
lclavicle -1.5429443093062158e-15 -3.295137333967805e-15
lhumerus -61.064208016445114 -3.4663664095964695 88.53662452119697
lradius 112.38147630677491
lwrist 33.39382925963662
lhand -25.30965861299226 2.9379461075604834
lfingers 7.12502
lthumb 1.0791500253419009 33.24753370802475
rclavicle -1.5383078601495833e-15 -3.2931465630962926e-15
rhumerus -41.452555314352814 19.422956291234712 -96.161310096419
rradius 127.50546857092881
rwrist -21.44820492157111
rhand -16.33431055377085 38.36984298030395
rfingers 7.12502
rthumb 7.877451072530888 8.387572948676079
62
root 0.910183705587678 18.68438808489317 29.03201080730287 5.069213591668553 -2.77725838107738 -3.909665222686327
lfemur -27.991326508799403 -1.0549273384995854 -17.68104965994832
ltibia 30.448631481462975
lfoot 7.3776952318421385 -14.08876341719143
ltoes -16.59714810169835
rfemur 4.287330413822458 9.120116924052029 33.37241473006569
rtibia 31.95779815211668
rfoot 24.36123788466344 -5.070844949261847
rtoes 17.612050070508314
lowerback 10.183315427343901 2.4260596644600887 4.213934317433465
upperback -2.0273201130608496 3.7853330608459346 0.4566311079020994
thorax -7.344389215722406 1.6647748639033195 -2.6113412637598836
lowerneck -16.979543618654823 -3.9779803599604744 -3.2457681616394374
upperneck 13.246493463206237 -4.889565185043455 4.346508201559199
head 7.910778511496712 -2.164016442291234 1.2424086619151942
lclavicle -1.5441261184910675e-15 -3.295999132432605e-15
lhumerus -60.46939223519748 -3.2013806317411615 88.2450726167837
lradius 112.54287066119147
lwrist 33.05024459604586
lhand -25.2063830560135 2.146397755854591
lfingers 7.12502
lthumb 1.3837129452156578 32.01949700644205
rclavicle -1.5367965402591989e-15 -3.2919606918645164e-15
rhumerus -41.270055255336686 19.75200534089673 -96.33846389947084
rradius 127.31549412172569
rwrist -21.2654354599508
rhand -17.093327799450282 37.99888647363186
rfingers 7.12502
rthumb 7.794715498714816 8.190101277353214
